<?xml version="1.0" ?><svg xmlns="http://www.w3.org/2000/svg" xmlns:xlink="http://www.w3.org/1999/xlink" version="1.1" viewBox="0 0 512 512" style="enable-background:new 0 0 512 512;" xml:space="preserve"><g id="_x30_1_x2C__Programming_x2C__Coding_x2C__Cmputer_x2C__Laptop_x2C__python_x2C__programming_language_x2C_code_x2C__metadata"><g><g><path style="fill:#283954;" d="M131,156c5.522,0,10-4.477,10-10s-4.478-10-10-10H71c-5.522,0-10,4.477-10,10v210     c0,5.522,4.478,10,10,10h370c5.522,0,10-4.478,10-10V146c0-5.523-4.478-10-10-10h-60c-5.522,0-10,4.477-10,10s4.478,10,10,10h50     v190H81V156H131z"/><path style="fill:#283954;" d="M501,386h-10V126c0-16.542-13.458-30-30-30h-80c-5.522,0-10,4.477-10,10s4.478,10,10,10h80     c5.514,0,10,4.486,10,10v260c-17.702,0-413.528,0-430,0V126c0-5.514,4.486-10,10-10h80c5.522,0,10-4.477,10-10s-4.478-10-10-10     H51c-16.542,0-30,13.458-30,30v260H11c-5.522,0-10,4.478-10,10v14.667C1,452.206,34.794,486,76.333,486h359.334     C477.206,486,511,452.206,511,410.667V396C511,390.478,506.522,386,501,386z M301,406v20h-90v-20H301z M491,410.667     C491,441.178,466.178,466,435.667,466H76.333C45.822,466,21,441.178,21,410.667V406c27.101,0,151.592,0,170,0v30     c0,5.522,4.478,10,10,10h110c5.522,0,10-4.478,10-10v-30c18.188,0,142.928,0,170,0V410.667z"/><path style="fill:#283954;" d="M121,276c0,5.522,4.478,10,10,10h70c5.522,0,10-4.478,10-10s-4.478-10-10-10h-70     C125.478,266,121,270.478,121,276z"/><path style="fill:#283954;" d="M241,286h30c5.522,0,10-4.478,10-10s-4.478-10-10-10h-30c-5.522,0-10,4.478-10,10     S235.478,286,241,286z"/><path style="fill:#283954;" d="M311,286h70c5.522,0,10-4.478,10-10s-4.478-10-10-10h-70c-5.522,0-10,4.478-10,10     S305.478,286,311,286z"/><path style="fill:#283954;" d="M251,326c5.522,0,10-4.478,10-10s-4.478-10-10-10h-50c-5.522,0-10,4.478-10,10s4.478,10,10,10H251     z"/><path style="fill:#283954;" d="M291,326h90c5.522,0,10-4.478,10-10s-4.478-10-10-10h-90c-5.522,0-10,4.478-10,10     S285.478,326,291,326z"/><path style="fill:#283954;" d="M161,326c5.522,0,10-4.478,10-10s-4.478-10-10-10h-30c-5.522,0-10,4.478-10,10s4.478,10,10,10H161     z"/></g><g><path style="fill:#5596FB;" d="M361,26H151c-16.542,0-30,13.458-30,30v160c0,16.542,13.458,30,30,30h210     c16.542,0,30-13.458,30-30V56C391,39.458,377.542,26,361,26z M371,216c0,5.514-4.486,10-10,10H151c-5.514,0-10-4.486-10-10V56     c0-5.514,4.486-10,10-10h210c5.514,0,10,4.486,10,10V216z"/><path style="fill:#5596FB;" d="M206.355,100.645c-3.906-3.905-10.236-3.905-14.143,0l-28.284,28.284     c-3.905,3.905-3.905,10.237,0,14.143l28.284,28.284c3.906,3.905,10.236,3.905,14.143,0c3.905-3.905,3.905-10.237,0-14.143     L185.143,136l21.213-21.213C210.261,110.882,210.261,104.55,206.355,100.645z"/><path style="fill:#5596FB;" d="M319.787,100.645c-3.906-3.905-10.236-3.905-14.143,0c-3.905,3.905-3.905,10.237,0,14.143     L326.857,136l-21.213,21.213c-3.905,3.905-3.905,10.237,0,14.143c3.906,3.905,10.236,3.905,14.143,0l28.284-28.284     c3.905-3.905,3.905-10.237,0-14.143L319.787,100.645z"/><path style="fill:#5596FB;" d="M275.271,76.675c-5.26-1.708-10.895,1.169-12.601,6.421l-32.363,99.629     c-2.101,6.469,2.74,13.092,9.513,13.092c4.216,0,8.136-2.688,9.509-6.914l32.363-99.629     C283.398,84.022,280.523,78.381,275.271,76.675z"/></g><circle style="fill:#283954;" cx="121" cy="436" r="10"/><circle style="fill:#283954;" cx="81" cy="436" r="10"/></g></g><g id="Layer_1"/></svg>